<?xml version="1.0" encoding="UTF-8"?>
<svg id="Layer_1" xmlns="http://www.w3.org/2000/svg" version="1.1" viewBox="0 0 36 36">
  <!-- Generator: Adobe Illustrator 29.2.1, SVG Export Plug-In . SVG Version: 2.1.0 Build 116)  -->
  <defs>
    <style>
      .st0 {
        fill: #8e1642;
      }
    </style>
  </defs>
  <path class="st0" d="M21.5,11.3c3.1-2.7,1.9-7.7-1.9-9s-9.4,5.2-5.2,9c-.1-1.4.6-2.7,1.8-3.4-.3-.5-.5-.9-.6-1.5-.4-4,4.4-4,4.7-1s0,1.2-.2,1.7-.3.5-.4.8c1.2.7,1.9,2,1.8,3.4ZM17.8,4.5c-.9.1-1,1.2-.9,1.9.2,1.3,2.2,1.4,2.4,0s-.2-2.1-1.4-1.9ZM12,7.7l-.6.3c.2.4.5,1.5,1,.7l-.4-.9ZM24.6,7.9l-.6-.2c-.1.5-.9,1.2,0,1.2l.5-1ZM20.4,12.2c.2-1.6-.3-3.4-2.1-3.6s-3,1.8-2.6,3.6c1.5.7,3.1.7,4.7,0ZM10.9,9.7l-.7-1-1,.8.8.9.9-.7ZM25.8,8.7l-.6.9c0,.2.7.5.8.8l.8-.9-1-.8ZM8.2,10.4c-.1.2-.8.8-.8,1l.8.7.8-.9-.8-.8ZM27.7,10.4l-.8.8.8.9c.2-.1.9-.6.8-.7s-.8-.9-.8-.9ZM7.6,12.9l-1-.5-.6,1.1,1,.5c0,0,.7-1,.6-1.1ZM29.4,12.4c-.1,0-.9.5-1,.6l.6,1,1-.5-.6-1.1ZM18.6,13.3h-1.2v3c-1.8.3-3.1,2-2.9,3.9s.3.8.3,1.3l-4.3,3.1.7.9,4.3-3.1c1.4,1.2,3.5,1.3,4.9,0l4.3,3.2c0-.3.7-.8.6-1l-4.1-3.1c0-.4.3-.8.3-1.3.2-1.8-1.1-3.6-2.9-3.9v-3ZM6.5,15.1l-1.1-.4-.4,1.1,1.1.4.4-1.2ZM30.6,14.7l-1.1.4.4,1.2c.2,0,1.1-.3,1.1-.4l-.4-1.1ZM5.8,17.4l-1.1-.2-.2,1.3h1.2c0,0,.1-1.1.1-1.1ZM31.5,18.5l-.2-1.3-1.1.2v1.2c.1,0,1.3,0,1.3,0ZM5.6,19.7h-1.2c0,0,0,1.3,0,1.3l1.2-.2v-1.2ZM31.6,19.7h-1.2c0,0,0,1.2,0,1.2h1.1c0,.1,0-1.2,0-1.2ZM5.8,22.2l-1.1.2v.6c0,0,1.2-.3,1.2-.3v-.5ZM31.2,23v-.6c-.1,0-.9-.3-1-.2v.5c0,0,1,.3,1,.3ZM9.7,32.5c3.1-2.7,1.9-7.9-2.1-9s-9.1,5.3-5,9c-.1-1.4.6-2.7,1.8-3.4-.3-.5-.5-.9-.6-1.5-.4-4,4.4-4,4.7-1s0,1.2-.2,1.7-.3.5-.4.8c1.2.7,1.9,2,1.8,3.4ZM33.3,32.5c3.1-2.7,1.9-7.9-2.1-9s-9.1,5.3-5,9c-.1-1.4.6-2.7,1.8-3.4-.3-.5-.5-.9-.6-1.5-.4-4,4.4-4,4.7-1s0,1.2-.2,1.7-.3.5-.4.8c1.2.7,1.9,2,1.8,3.4ZM6,25.7c-.9.1-1,1.2-.9,1.9.2,1.3,2.2,1.4,2.4,0s-.2-2.1-1.4-1.9ZM29.6,25.7c-.9.1-1,1.2-.9,1.9.2,1.3,2.2,1.4,2.4,0s-.2-2.1-1.4-1.9ZM8.6,33.4c.2-1.6-.3-3.4-2.1-3.6s-3,1.8-2.6,3.6c1.5.7,3.1.7,4.7,0ZM32.2,33.4c.2-1.6-.3-3.4-2.1-3.6s-3,1.8-2.6,3.6c1.5.7,3.1.7,4.7,0ZM12.3,30.8l-.4-.2-.6,1,.6.3c0-.2.5-.9.4-1.1ZM23.7,30.8c.2.5.3,1.4,1,.8l-.6-1-.4.2ZM14.3,31.6l-1-.3-.4,1.1c.2,0,1,.4,1.1.3l.3-1.1ZM22.7,31.3l-1,.3.3,1.2,1.1-.4-.4-1.1ZM16.4,32h-1c0-.1-.2,1-.2,1l1.2.2v-1.2ZM20.7,31.9h-1c0,.1,0,1.3,0,1.3h1.2c0-.1-.2-1.3-.2-1.3ZM18.5,32.2h-1v1.2c0,0,1.1,0,1.1,0v-1.2Z"/>
  <path class="st0" d="M21.5,11.3c.1-1.4-.6-2.7-1.8-3.4,0-.3.3-.5.4-.8.2-.5.2-1.1.2-1.7-.3-3.1-5.1-3-4.7,1s.3,1,.6,1.5c-1.2.7-1.9,2-1.8,3.4-4.2-3.8-.3-10.7,5.2-9s5,6.3,1.9,9Z"/>
  <path class="st0" d="M33.3,32.5c.1-1.4-.6-2.7-1.8-3.4,0-.3.3-.5.4-.8.2-.5.2-1.1.2-1.7-.3-3.1-5.1-3-4.7,1,0,.6.3,1,.6,1.5-1.2.7-1.9,2-1.8,3.4-4.1-3.7-.4-10.5,5-9s5.2,6.3,2.1,9Z"/>
  <path class="st0" d="M9.7,32.5c.1-1.4-.6-2.7-1.8-3.4,0-.3.3-.5.4-.8.2-.5.2-1.1.2-1.7-.3-3.1-5.1-3-4.7,1s.3,1,.6,1.5c-1.2.7-1.9,2-1.8,3.4-4.1-3.7-.4-10.5,5-9s5.2,6.3,2.1,9Z"/>
  <path class="st0" d="M18.6,13.3v3c1.8.3,3.1,2,2.9,3.9s-.3.8-.3,1.3l4.1,3.1c.2.2-.5.7-.6,1l-4.3-3.2c-1.4,1.3-3.5,1.2-4.9,0l-4.3,3.1-.7-.9,4.3-3.1c0-.4-.3-.8-.3-1.3-.2-1.8,1.1-3.6,2.9-3.9v-3h1.2ZM17.7,17.5c-2.9.3-2.6,4.9.5,4.7s2.8-5.1-.5-4.7Z"/>
  <path class="st0" d="M32.2,33.4c-1.5.7-3.1.7-4.7,0-.4-1.8.5-3.8,2.6-3.6s2.3,2,2.1,3.6Z"/>
  <path class="st0" d="M8.6,33.4c-1.5.7-3.1.7-4.7,0-.4-1.8.5-3.8,2.6-3.6s2.3,2,2.1,3.6Z"/>
  <path class="st0" d="M20.4,12.2c-1.5.7-3.1.7-4.7,0-.4-1.8.5-3.8,2.6-3.6s2.3,2,2.1,3.6Z"/>
  <path class="st0" d="M17.8,4.5c1.2-.2,1.5.9,1.4,1.9-.2,1.4-2.2,1.4-2.4,0s0-1.8.9-1.9Z"/>
  <path class="st0" d="M29.6,25.7c1.2-.2,1.5.9,1.4,1.9-.2,1.4-2.2,1.4-2.4,0s0-1.8.9-1.9Z"/>
  <path class="st0" d="M6,25.7c1.2-.2,1.5.9,1.4,1.9-.2,1.4-2.2,1.4-2.4,0s0-1.8.9-1.9Z"/>
  <polygon class="st0" points="10.9 9.7 10 10.3 9.2 9.4 10.2 8.7 10.9 9.7"/>
  <path class="st0" d="M27.7,10.4c0,0,.8.8.8.9,0,.2-.7.6-.8.7l-.8-.9.8-.8Z"/>
  <path class="st0" d="M29.4,12.4l.6,1.1-1,.5-.6-1c.1-.1.9-.7,1-.6Z"/>
  <path class="st0" d="M8.2,10.4l.8.8-.8.9-.8-.7c0-.2.6-.8.8-1Z"/>
  <polygon class="st0" points="5.8 17.4 5.7 18.5 4.5 18.5 4.7 17.2 5.8 17.4"/>
  <polygon class="st0" points="31.5 18.5 30.3 18.5 30.2 17.4 31.3 17.2 31.5 18.5"/>
  <path class="st0" d="M25.8,8.7l1,.8-.8.9c-.1-.2-.9-.6-.8-.8l.6-.9Z"/>
  <path class="st0" d="M7.6,12.9c0,0-.5,1.1-.6,1.1l-1-.5.6-1.1,1,.5Z"/>
  <path class="st0" d="M30.6,14.7l.4,1.1c0,.2-.9.3-1.1.4l-.4-1.2,1.1-.4Z"/>
  <polygon class="st0" points="6.5 15.1 6.1 16.3 5 15.8 5.4 14.7 6.5 15.1"/>
  <polygon class="st0" points="5.6 19.7 5.7 20.9 4.5 21 4.4 19.8 5.6 19.7"/>
  <polygon class="st0" points="31.6 19.7 31.5 21 30.4 20.9 30.4 19.8 31.6 19.7"/>
  <polygon class="st0" points="16.4 32 16.3 33.2 15.1 33.1 15.4 31.9 16.4 32"/>
  <polygon class="st0" points="18.5 32.2 18.6 33.4 17.4 33.4 17.5 32.2 18.5 32.2"/>
  <polygon class="st0" points="22.7 31.3 23.1 32.4 22 32.8 21.7 31.6 22.7 31.3"/>
  <polygon class="st0" points="20.7 31.9 20.9 33.1 19.7 33.2 19.6 32 20.7 31.9"/>
  <path class="st0" d="M14.3,31.6l-.3,1.1c-.1,0-.9-.3-1.1-.3l.4-1.1,1,.3Z"/>
  <path class="st0" d="M12,7.7l.4.9c-.5.8-.8-.2-1-.7l.6-.3Z"/>
  <path class="st0" d="M12.3,30.8c0,.2-.4.9-.4,1.1l-.6-.3.6-1,.4.2Z"/>
  <path class="st0" d="M24.6,7.9l-.5,1c-1,0-.2-.7,0-1.2l.6.2Z"/>
  <path class="st0" d="M23.7,30.8l.4-.2.6,1c-.6.6-.8-.3-1-.8Z"/>
  <path class="st0" d="M31.2,23l-1.1-.3v-.5c.2,0,1,.1,1.2.2v.6Z"/>
  <polygon class="st0" points="5.8 22.2 5.9 22.7 4.8 23 4.7 22.3 5.8 22.2"/>
</svg>