<?xml version="1.0" encoding="UTF-8"?>
<svg id="Layer_1" xmlns="http://www.w3.org/2000/svg" xmlns:xlink="http://www.w3.org/1999/xlink" version="1.1" viewBox="0 0 126 50">
  <!-- Generator: Adobe Illustrator 29.2.1, SVG Export Plug-In . SVG Version: 2.1.0 Build 116)  -->
  <defs>
    <style>
      .st0, .st1, .st2 {
        isolation: isolate;
      }

      .st1 {
        fill: url(#linear-gradient1);
      }

      .st1, .st2 {
        mix-blend-mode: multiply;
        opacity: .6;
      }

      .st2 {
        fill: url(#linear-gradient);
      }

      .st3 {
        fill: #0f2442;
      }

      .st4 {
        fill: #8e1642;
      }
    </style>
    <linearGradient id="linear-gradient" x1=".2" y1="20.1" x2="10.4" y2="20.1" gradientTransform="translate(0 51.3) scale(1 -1)" gradientUnits="userSpaceOnUse">
      <stop offset="0" stop-color="#fff"/>
      <stop offset="1" stop-color="#231f20"/>
    </linearGradient>
    <linearGradient id="linear-gradient1" x1="10.4" y1="41.8" x2="25.5" y2="41.8" xlink:href="#linear-gradient"/>
  </defs>
  <g class="st0">
    <g id="Layer_11" data-name="Layer_1">
      <g>
        <g>
          <path class="st4" d="M46,22.6v5.9h-1.5v-5.9h-2.2v-1.3h5.5v1.3h-2,.2Z"/>
          <path class="st4" d="M50.8,25.7v2.8h-1.5v-7h3.7c.6,0,1.1,0,1.3.6.4.4.6.9.6,1.5,0,.9-.4,1.5-1.1,1.7.4,0,.7.4.7.7v1.8c0,.2,0,.4.4.6h0c0,.2-1.5.2-1.5.2,0-.2-.2-.7-.2-1.1v-.9c0-.6-.4-.9-.9-.9h-1.7l.2.2ZM50.8,24.4h2.4s.2-.4.2-.7,0-.6-.2-.7c0,0-.4-.2-.7-.2h-1.7v1.8-.2Z"/>
          <path class="st4" d="M58.4,21.5v7h-1.5v-7h1.5Z"/>
          <path class="st4" d="M61.7,25.9v2.6h-1.5v-7h3.1c.7,0,1.3.2,1.8.6.4.4.6.9.6,1.5s-.2,1.3-.7,1.8c-.4.4-.9.6-1.5.6h-1.8ZM61.7,24.8h1.3c.7,0,1.1-.4,1.1-1.1s-.4-1.1-1.1-1.1h-1.3v2.2Z"/>
          <path class="st3" d="M68.7,25.9v2.6h-1.5v-7h3.1c.7,0,1.3.2,1.8.6.4.4.6.9.6,1.5s-.2,1.3-.7,1.8c-.4.4-.9.6-1.5.6h-1.8ZM68.7,24.8h1.3c.7,0,1.1-.4,1.1-1.1s-.4-1.1-1.1-1.1h-1.3v2.2Z"/>
          <path class="st3" d="M75.5,25.7v2.8h-1.5v-7h3.7c.6,0,1.1,0,1.3.6.4.4.6.9.6,1.5,0,.9-.4,1.5-1.1,1.7.4,0,.7.4.7.7v1.8c0,.2,0,.4.4.6h0c0,.2-1.5.2-1.5.2,0-.2-.2-.7-.2-1.1v-.9c0-.6-.4-.9-.9-.9h-1.7l.2.2ZM75.5,24.4h2.4s.2-.4.2-.7,0-.6-.2-.7c0,0-.4-.2-.7-.2h-1.7v1.8-.2Z"/>
          <path class="st3" d="M84.5,21.3c.9,0,1.8.4,2.4.9.7.7.9,1.7.9,2.6s-.4,2-.9,2.6c-.6.6-1.5.9-2.4.9s-1.8-.4-2.4-.9c-.7-.7-.9-1.7-.9-2.6s.4-2,.9-2.6c.6-.6,1.5-.9,2.4-.9ZM84.5,22.6c-.6,0-1.1.2-1.5.7-.4.4-.6.9-.6,1.7s.2,1.3.6,1.8c.4.4.7.6,1.3.6s1.1-.2,1.5-.7c.4-.4.6-.9.6-1.7s-.2-1.3-.6-1.8c-.4-.4-.7-.6-1.3-.6Z"/>
          <path class="st3" d="M95.6,24.6v3.9h-.9v-.9c-.7.7-1.5,1.1-2.2,1.1s-1.8-.4-2.4-1.1c-.6-.7-.7-1.5-.7-2.4s.4-2,1.1-2.8c.6-.6,1.5-.9,2.4-.9s1.7.2,2.2.7c.6.4.7.9.9,1.7h-1.3c-.2-.7-.9-1.1-1.7-1.1s-1.1.2-1.5.7c-.4.4-.6.9-.6,1.7s.2,1.3.6,1.8c.4.4.7.6,1.3.6s1.1-.2,1.5-.6c.2-.2.4-.6.4-.9h-1.7v-1.3h2.8l-.2-.2Z"/>
          <path class="st3" d="M98.9,25.7v2.8h-1.5v-7h3.7c.6,0,1.1,0,1.3.6.4.4.6.9.6,1.5,0,.9-.4,1.5-1.1,1.7.4,0,.7.4.7.7v1.8c0,.2,0,.4.4.6h0c0,.2-1.5.2-1.5.2,0-.2-.2-.7-.2-1.1v-.9c0-.6-.4-.9-.9-.9h-1.7l.2.2ZM98.9,24.4h2.4s.2-.4.2-.7,0-.6-.2-.7c0,0-.4-.2-.7-.2h-1.7v1.8-.2Z"/>
          <path class="st3" d="M106.4,25.6v1.8h3.9v1.3h-5.2v-7h5.2v1.3h-3.7v1.7h3.3v1.3h-3.3l-.2-.4Z"/>
          <path class="st3" d="M116.9,23.5h-1.3c0-.7-.6-1.1-1.5-1.1s-.7,0-.9.2c-.2,0-.4.4-.4.6s0,.4.2.6c0,0,.6.2,1.1.4h1.1c.7.4,1.1.6,1.5.9s.4.7.4,1.3-.4,1.3-.9,1.7-1.1.6-2,.6-1.7-.2-2.2-.7c-.4-.4-.7-.9-.7-1.7h1.5c0,.7.6,1.1,1.7,1.1s.7,0,1.1-.2c.2,0,.4-.4.4-.7s0-.6-.4-.6-.6-.2-1.1-.4h-.9c-.7-.4-1.3-.6-1.5-.7s-.4-.7-.4-1.3.2-1.3.7-1.7c.4-.4,1.1-.6,1.8-.6s1.7.2,2.2.7c.4.4.6.9.6,1.7Z"/>
          <path class="st3" d="M123.7,23.5h-1.3c0-.7-.6-1.1-1.5-1.1s-.7,0-.9.2c-.2,0-.4.4-.4.6s0,.4.2.6c0,0,.6.2,1.1.4h1.1c.7.4,1.1.6,1.5.9s.4.7.4,1.3-.4,1.3-.9,1.7-1.1.6-2,.6-1.7-.2-2.2-.7c-.4-.4-.7-.9-.7-1.7h1.5c0,.7.6,1.1,1.7,1.1s.7,0,1.1-.2c.2,0,.4-.4.4-.7s0-.6-.4-.6-.6-.2-1.1-.4h-.9c-.7-.4-1.3-.6-1.5-.7s-.4-.7-.4-1.3.2-1.3.7-1.7c.4-.4,1.1-.6,1.8-.6s1.7.2,2.2.7c.4.4.6.9.6,1.7Z"/>
        </g>
        <g>
          <g>
            <polygon class="st3" points="23.2 22.7 23.2 48.9 10.4 48.9 10.4 18.6 23.2 22.7"/>
            <polygon class="st3" points=".2 43.7 .2 22 10.4 18.6 10.4 40.3 .2 43.7"/>
            <polygon class="st2" points=".2 43.7 .2 22 10.4 18.6 10.4 40.3 .2 43.7"/>
          </g>
          <g>
            <polygon class="st3" points="10.4 5.9 10.4 17.9 25.5 12.9 25.5 1.1 10.4 5.9"/>
            <polygon class="st1" points="10.4 5.9 10.4 17.9 25.5 12.9 25.5 1.1 10.4 5.9"/>
            <polygon class="st3" points="40.7 6.1 40.7 48.9 25.5 48.9 25.5 1.1 25.5 1.1 40.7 6.1"/>
          </g>
        </g>
      </g>
    </g>
  </g>
</svg>