<?xml version="1.0" encoding="UTF-8"?>
<svg id="Layer_1" xmlns="http://www.w3.org/2000/svg" xmlns:xlink="http://www.w3.org/1999/xlink" version="1.1" viewBox="0 0 81 27">
  <!-- Generator: Adobe Illustrator 29.2.1, SVG Export Plug-In . SVG Version: 2.1.0 Build 116)  -->
  <defs>
    <style>
      .st0, .st1, .st2 {
        isolation: isolate;
      }

      .st1 {
        fill: url(#linear-gradient1);
      }

      .st1, .st2 {
        mix-blend-mode: multiply;
        opacity: .6;
      }

      .st2 {
        fill: url(#linear-gradient);
      }

      .st3 {
        fill: #0f2442;
      }

      .st4 {
        fill: #8e1642;
      }
    </style>
    <linearGradient id="linear-gradient" x1="0" y1="10.5" x2="5.4" y2="10.5" gradientTransform="translate(0 27.3) scale(1 -1)" gradientUnits="userSpaceOnUse">
      <stop offset="0" stop-color="#fff"/>
      <stop offset="1" stop-color="#231f20"/>
    </linearGradient>
    <linearGradient id="linear-gradient1" x1="5.4" y1="22" x2="13.4" y2="22" gradientTransform="translate(0 27.3) scale(1 -1)" gradientUnits="userSpaceOnUse">
      <stop offset="0" stop-color="#fff"/>
      <stop offset="1" stop-color="#231f20"/>
    </linearGradient>
  </defs>
  <g class="st0">
    <g id="Layer_11" data-name="Layer_1">
      <g>
        <g>
          <path class="st4" d="M30.1,11.9v3.9h-1v-3.9h-1.4v-.8h3.6v.8h-1.3.1Z"/>
          <path class="st4" d="M33.2,14v1.8h-1v-4.6h2.4c.4,0,.7,0,.8.4.2.2.4.6.4,1,0,.6-.2,1-.7,1.1.2,0,.5.2.5.5v1.2c0,.1,0,.2.2.4h0c0,.1-1,.1-1,.1,0-.1-.1-.5-.1-.7v-.6c0-.4-.2-.6-.6-.6h-1.1.1ZM33.2,13.1h1.6s.1-.2.1-.5,0-.4-.1-.5c0,0-.2-.1-.5-.1h-1.1v1.2h0Z"/>
          <path class="st4" d="M38.2,11.2v4.6h-1v-4.6h1Z"/>
          <path class="st4" d="M40.3,14.1v1.7h-1v-4.6h2c.5,0,.8.1,1.2.4.2.2.4.6.4,1s-.1.8-.5,1.2c-.2.2-.6.4-1,.4h-1.2ZM40.3,13.4h.8c.5,0,.7-.2.7-.7s-.2-.7-.7-.7h-.8v1.3h0Z"/>
          <path class="st3" d="M44.9,14.1v1.7h-1v-4.6h2c.5,0,.8.1,1.2.4.2.2.4.6.4,1s-.1.8-.5,1.2c-.2.2-.6.4-1,.4h-1.2ZM44.9,13.4h.8c.5,0,.7-.2.7-.7s-.2-.7-.7-.7h-.8v1.3h0Z"/>
          <path class="st3" d="M49.3,14v1.8h-1v-4.6h2.4c.4,0,.7,0,.8.4.2.2.4.6.4,1,0,.6-.2,1-.7,1.1.2,0,.5.2.5.5v1.2c0,.1,0,.2.2.4h0c0,.1-1,.1-1,.1,0-.1-.1-.5-.1-.7v-.6c0-.4-.2-.6-.6-.6h-1.1.1ZM49.3,13.1h1.6s.1-.2.1-.5,0-.4-.1-.5c0,0-.2-.1-.5-.1h-1.1v1.2h0Z"/>
          <path class="st3" d="M55.2,11.1c.6,0,1.2.2,1.6.6.5.5.6,1.1.6,1.7s-.2,1.3-.6,1.7c-.4.4-1,.6-1.6.6s-1.2-.2-1.6-.6c-.5-.5-.6-1.1-.6-1.7s.2-1.3.6-1.7c.4-.4,1-.6,1.6-.6ZM55.2,11.9c-.4,0-.7.1-1,.5-.2.2-.4.6-.4,1.1s.1.8.4,1.2c.2.2.5.4.8.4s.7-.1,1-.5c.2-.2.4-.6.4-1.1s-.1-.8-.4-1.2c-.2-.2-.5-.4-.8-.4Z"/>
          <path class="st3" d="M62.5,13.3v2.5h-.6v-.6c-.5.5-1,.7-1.4.7s-1.2-.2-1.6-.7c-.4-.5-.5-1-.5-1.6s.2-1.3.7-1.8c.4-.4,1-.6,1.6-.6s1.1.1,1.4.5c.4.2.5.6.6,1.1h-.8c-.1-.5-.6-.7-1.1-.7s-.7.1-1,.5c-.2.2-.4.6-.4,1.1s.1.8.4,1.2c.2.2.5.4.8.4s.7-.1,1-.4c.1-.1.2-.4.2-.6h-1.1v-.8h1.8-.1Z"/>
          <path class="st3" d="M64.6,14v1.8h-1v-4.6h2.4c.4,0,.7,0,.8.4.2.2.4.6.4,1,0,.6-.2,1-.7,1.1.2,0,.5.2.5.5v1.2c0,.1,0,.2.2.4h0c0,.1-1,.1-1,.1,0-.1-.1-.5-.1-.7v-.6c0-.4-.2-.6-.6-.6h-1.1.1ZM64.6,13.1h1.6s.1-.2.1-.5,0-.4-.1-.5c0,0-.2-.1-.5-.1h-1.1v1.2h0Z"/>
          <path class="st3" d="M69.6,13.9v1.2h2.5v.8h-3.4v-4.6h3.4v.8h-2.4v1.1h2.2v.8h-2.2v-.2Z"/>
          <path class="st3" d="M76.4,12.5h-.8c0-.5-.4-.7-1-.7s-.5,0-.6.1c-.1,0-.2.2-.2.4s0,.2.1.4c0,0,.4.1.7.2h.7c.5.2.7.4,1,.6s.2.5.2.8-.2.8-.6,1.1-.7.4-1.3.4-1.1-.1-1.4-.5c-.2-.2-.5-.6-.5-1.1h1c0,.5.4.7,1.1.7s.5,0,.7-.1c.1,0,.2-.2.2-.5s0-.4-.2-.4-.4-.1-.7-.2h-.6c-.5-.2-.8-.4-1-.5s-.2-.5-.2-.8.1-.8.5-1.1c.2-.2.7-.4,1.2-.4s1.1.1,1.4.5c.2.2.4.6.4,1.1Z"/>
          <path class="st3" d="M80.9,12.5h-.8c0-.5-.4-.7-1-.7s-.5,0-.6.1c-.1,0-.2.2-.2.4s0,.2.1.4c0,0,.4.1.7.2h.7c.5.2.7.4,1,.6s.2.5.2.8-.2.8-.6,1.1-.7.4-1.3.4-1.1-.1-1.4-.5c-.2-.2-.5-.6-.5-1.1h1c0,.5.4.7,1.1.7s.5,0,.7-.1c.1,0,.2-.2.2-.5s0-.4-.2-.4-.4-.1-.7-.2h-.6c-.5-.2-.8-.4-1-.5s-.2-.5-.2-.8.1-.8.5-1.1c.2-.2.7-.4,1.2-.4s1.1.1,1.4.5c.2.2.4.6.4,1.1Z"/>
        </g>
        <g>
          <g>
            <polygon class="st3" points="12.2 12.3 12.2 26.1 5.4 26.1 5.4 10.1 12.2 12.3"/>
            <polygon class="st3" points="0 23.4 0 11.9 5.4 10.1 5.4 21.6 0 23.4"/>
            <polygon class="st2" points="0 23.4 0 11.9 5.4 10.1 5.4 21.6 0 23.4"/>
          </g>
          <g>
            <polygon class="st3" points="5.4 3.4 5.4 9.8 13.4 7.1 13.4 .9 5.4 3.4"/>
            <polygon class="st1" points="5.4 3.4 5.4 9.8 13.4 7.1 13.4 .9 5.4 3.4"/>
            <polygon class="st3" points="21.4 3.5 21.4 26.1 13.4 26.1 13.4 .9 13.4 .9 21.4 3.5"/>
          </g>
        </g>
      </g>
    </g>
  </g>
</svg>