<?xml version="1.0" encoding="UTF-8"?>
<svg id="Layer_1" xmlns="http://www.w3.org/2000/svg" version="1.1" viewBox="0 0 60 60">
  <!-- Generator: Adobe Illustrator 29.2.1, SVG Export Plug-In . SVG Version: 2.1.0 Build 116)  -->
  <defs>
    <style>
      .st0 {
        fill: #fff;
      }

      .st1 {
        fill: #0f2442;
      }
    </style>
  </defs>
  <rect class="st1" x="0" width="60" height="60"/>
  <g id="ZTu5Ph.tif">
    <g>
      <path class="st0" d="M32.2,47.5c-1.5,0-3.1,0-4.5,0-2.9,0-6.1-.3-9-1s-2.2-.5-2.5-.8c-.6-.5-.5-2.5-.5-3.2,0-2.6.6-5.8,1.9-8.1s3.5-2.3,5.6-3.3,1.5-.8,1.6-.8.6.4.6.5v4.3s3.9,10.6,3.9,10.6c.2.5.9.6,1.1,0l4-10.6c.2-1.4-.2-2.9,0-4.3s.5-.5.7-.6c1,.7,2.2,1.1,3.3,1.5s1.5.5,2.3.9c2.3,1.4,3.2,6,3.4,8.5s.2,3.2-.1,4-1.2.8-1.8,1c-3.1.9-6.8,1.2-10,1.2Z"/>
      <path class="st0" d="M28.6,12.5c1.4-.1,2.9.3,4.2.8,2.6,1,4.4,2.7,4.2,5.7s-.5,1.8-.4,1.9.4.5.4,1c0,1.1-.3,1.8-.7,2.7s-.2.9-.4,1.4c-2,5.5-7.5,7.2-10.9,1.7s-.7-1.9-1.2-3.1-.3-.5-.4-.8c-.2-.6-.4-1.6-.3-2.2s.3-.5.3-.7-.2-.6-.2-.8c-.3-1.8-.2-2.9.7-4.5s2.7-2.9,4.7-3.1Z"/>
      <path class="st0" d="M31.7,32.3l-1.5,2.4,1.4,1.4-1.4,8.7c0,.3-.3.3-.4,0l-1.4-8.7,1.4-1.5-1.6-2.4c1.1.4,2.3.3,3.5,0Z"/>
    </g>
  </g>
</svg>