<?xml version="1.0" encoding="UTF-8"?>
<svg id="Layer_1" xmlns="http://www.w3.org/2000/svg" version="1.1" viewBox="0 0 60 60">
  <!-- Generator: Adobe Illustrator 29.2.1, SVG Export Plug-In . SVG Version: 2.1.0 Build 116)  -->
  <defs>
    <style>
      .st0 {
        fill: #fff;
      }

      .st1 {
        fill: #0f2442;
      }
    </style>
  </defs>
  <rect class="st1" width="60" height="60"/>
  <g id="UuGRnK.tif">
    <path class="st0" d="M30.8,12.6c.5.1,1,.2,1.4.3,3.9.9,6.8,4.5,7,8.5s-.2,6.6,0,9.8.1,1,.3,1.2c1.1,0,2,.3,2.3,1.4s0,1.7-.2,2.6c1.1,1.3,1.9,2.9,2.1,4.7s.2,4.1,0,4.9-1.1,1.4-2,1.5h-23.5c-1.1-.1-1.8-.8-2.1-1.9,0-1.3-.1-2.8,0-4.1s1-3.6,2.1-5c-.6-1.6-.5-4.1,1.8-4,.2.5.3.9.6,1.4,1.5,3.3,5,8.7,9.2,8.1s1.1-.3,1.6-.5c0-.1-.1,0-.2,0-.4.1-.7.3-1.1.3-5.1.5-8.3-6.9-9.4-10.9.1-3.1-.2-6.4,0-9.5.3-4.5,4-8.3,8.5-8.7h1.7ZM27.2,32.1c1.1.5,2.1.9,3.3.8,5.2-.5,6.9-7.6,5.2-11.8s-7.3-6.2-10.4-1.7c-3.2,4.6-1.1,10.9,2.4,14.7s6.6,3,9.9.4,1.6-1.4,1.7-1.6,0-.1,0-.1c-1,1.1-2.3,2-3.7,2.6-3.5,1.5-5.9.2-8-2.7s-.4-.5-.3-.5ZM30.7,46.2h11.1c.3,0,.8-.6.9-.9.2-1,0-3.7-.2-4.8s-.7-2.3-1.5-3.1c-1.9,3.5-5.1,7.5-9.1,8.6l-1.2.3ZM18.2,46.2h11l-1.7-.4c-3.9-1.4-6.6-4.8-8.6-8.3-.2,0-.5.6-.6.7-.5,1-.9,2.2-1,3.3s-.1,2.9,0,3.7.5.9.9.9Z"/>
  </g>
</svg>