<?xml version="1.0" encoding="UTF-8"?>
<svg id="Layer_1" xmlns="http://www.w3.org/2000/svg" version="1.1" viewBox="0 0 60 60">
  <!-- Generator: Adobe Illustrator 29.2.1, SVG Export Plug-In . SVG Version: 2.1.0 Build 116)  -->
  <defs>
    <style>
      .st0 {
        fill: #fff;
      }

      .st1 {
        fill: #0f2442;
      }
    </style>
  </defs>
  <rect class="st1" x="0" width="60" height="60"/>
  <g id="MqjVLO.tif">
    <path class="st0" d="M45,43.8v.8c-.1.2-.2.3-.5.5H15.5c-.6-.3-.5-1-.4-1.6.2-1.6,1-3.2,2.2-4.2,2.1-1.9,5.1-2,7.7-2.8,0,0,.1,0,.2-.1s.2-.8.2-.9,0-.1,0-.2c-1.3-.2-2.5-.5-3.7-1s-1.3-.5-1.5-.8c-.3-.5.1-.7.4-1,3.2-4.2.9-9.1,3.3-13.4s4.9-4.8,8-3.8,1.3.9,1.6,1,.8,0,1.2.1c1.5.4,2.2,2.3,2.5,3.6.9,3.9-.3,8.6,2.2,12.1s1,.9.6,1.4-1.3.7-1.7.8c-1.1.4-2.3.7-3.5.9,0,0,0,0,0,.2,0,.1.2.8.2.9s0,.1.2.1c3.9,1,8.1,1.3,9.6,5.7l.4,1.7Z"/>
  </g>
</svg>